<?xml version="1.0" encoding="utf-8"?>
<!-- Generator: Adobe Illustrator 16.2.0, SVG Export Plug-In . SVG Version: 6.00 Build 0)  -->
<!DOCTYPE svg PUBLIC "-//W3C//DTD SVG 1.1//EN" "http://www.w3.org/Graphics/SVG/1.1/DTD/svg11.dtd">
<svg version="1.1" id="Слой_1" xmlns="http://www.w3.org/2000/svg" xmlns:xlink="http://www.w3.org/1999/xlink" x="0px" y="0px"
	 width="56px" height="56px" viewBox="0 0 56 56" enable-background="new 0 0 56 56" xml:space="preserve">
<circle fill="#4EA3DA" cx="28" cy="28" r="28"/>
<path fill="#FFFFFF" d="M38.597,16.829c0.46-0.069,0.953-0.042,1.371,0.182c0.242,0.125,0.425,0.352,0.505,0.612
	c0.184,0.583,0.163,1.206,0.079,1.804c-0.293,2.715-0.708,5.415-1.132,8.112c-0.57,3.601-1.184,7.194-1.832,10.78
	c-0.199,0.983-0.309,2.002-0.752,2.916c-0.256,0.525-0.664,1.05-1.265,1.177c-0.667,0.115-1.351-0.057-1.953-0.344
	c-0.885-0.428-1.648-1.058-2.461-1.602c-0.859-0.57-1.72-1.136-2.574-1.714c-1.349-0.913-2.691-1.84-4.052-2.737
	c-0.501-0.339-1.012-0.712-1.311-1.251c-0.192-0.335-0.188-0.757-0.02-1.102c0.26-0.544,0.72-0.95,1.14-1.368
	c1.363-1.347,2.793-2.625,4.184-3.944c0.948-0.888,1.892-1.781,2.817-2.694c0.535-0.541,1.093-1.062,1.572-1.655
	c0.192-0.203,0.139-0.58-0.099-0.723c-0.271-0.116-0.577-0.008-0.812,0.143c-0.724,0.44-1.43,0.907-2.138,1.371
	c-2.878,1.901-5.736,3.835-8.596,5.765c-0.712,0.462-1.389,0.987-2.16,1.35c-0.484,0.229-1.002,0.395-1.537,0.449
	c-0.693,0.062-1.376-0.105-2.048-0.247c-0.952-0.226-1.891-0.497-2.82-0.8c-0.632-0.197-1.269-0.385-1.888-0.621
	c-0.347-0.146-0.711-0.301-0.963-0.592c-0.231-0.255-0.268-0.665-0.079-0.954c0.182-0.278,0.453-0.483,0.73-0.658
	c0.558-0.349,1.176-0.582,1.775-0.846c4.351-1.889,8.701-3.78,13.059-5.652c2.946-1.266,5.908-2.498,8.885-3.69
	c1.023-0.399,2.046-0.804,3.09-1.142C37.734,17.025,38.158,16.896,38.597,16.829L38.597,16.829z"/>
</svg>
