<svg width="28" height="28" viewBox="0 0 28 28" fill="none" xmlns="http://www.w3.org/2000/svg">
<circle cx="14" cy="14" r="14" fill="#5181B8"/>
<path d="M22.2716 10.0566C22.3907 9.63992 22.2716 9.33325 21.6989 9.33325H19.8036C19.3209 9.33325 19.0989 9.59659 18.9799 9.88992C18.9799 9.88992 18.0145 12.3266 16.6502 13.9066C16.2094 14.3633 16.0066 14.5099 15.7653 14.5099C15.6463 14.5099 15.4628 14.3633 15.4628 13.9466V10.0566C15.4628 9.55659 15.3277 9.33325 14.9287 9.33325H11.949C11.6466 9.33325 11.4664 9.56659 11.4664 9.78325C11.4664 10.2566 12.1485 10.3666 12.2193 11.6999V14.5933C12.2193 15.2266 12.1099 15.3433 11.8686 15.3433C11.225 15.3433 9.66122 12.8966 8.7345 10.0966C8.54787 9.55325 8.36446 9.33325 7.87858 9.33325H5.98332C5.44273 9.33325 5.33333 9.59659 5.33333 9.88992C5.33333 10.4099 5.97688 12.9933 8.32906 16.4066C9.89611 18.7366 12.1035 19.9999 14.1114 19.9999C15.318 19.9999 15.4661 19.7199 15.4661 19.2366C15.4661 17.0099 15.3567 16.7999 15.9616 16.7999C16.2415 16.7999 16.7242 16.9466 17.8504 18.0699C19.1375 19.4033 19.3499 19.9999 20.0707 19.9999H21.9659C22.5065 19.9999 22.78 19.7199 22.6224 19.1666C22.262 18.0033 19.8261 15.6099 19.7167 15.4499C19.4368 15.0766 19.5172 14.9099 19.7167 14.5766C19.7199 14.5733 22.0335 11.1999 22.2716 10.0566Z" fill="white"/>
</svg>
